# xmcd
#
# Track frame offsets:
#	150
#	24676
#	44839
#	63447
#	84937
#	97148
#	126254
#	144468
#	164106
#	183775
#	202734
#	220506
#	242747
#	262833
#	278364
#	306021
#	324346
#
# Disc length: 4577 seconds
#
# Revision: 1
# Processed by: cddbd v1.5.2PL0 Copyright (c) Steve Scherf et al.
# Submitted via: audiograbber 1.83.01
#
DISCID=ea11df11
DTITLE=Kornelije Kovac - Ljubavne balade/Ti si mi u krvi
DYEAR=2007
DGENRE=Rock
TTITLE0=Jedna zima sa kristinom
TTITLE1=Zlatni dani
TTITLE2=April u Beogradu
TTITLE3=Sedim u jednom pariskom lokalu
TTITLE4=Rucak za dvoje
TTITLE5=Ti samo budi dovoljno daleko
TTITLE6=Ivo Lola
TTITLE7=Stanica Podlugovi
TTITLE8=Maestro i Violina
TTITLE9=Milo moje
TTITLE10=Edita
TTITLE11=Ti si mi u krvi
TTITLE12=Ti nisi sam
TTITLE13=Vatra
TTITLE14=Pesmo moja
TTITLE15=Kazes da ti nekad izgledam ko Dunav
TTITLE16=Ti ne znas nista o Zivotu
EXTD=
EXTT0=
EXTT1=
EXTT2=
EXTT3=
EXTT4=
EXTT5=
EXTT6=
EXTT7=
EXTT8=
EXTT9=
EXTT10=
EXTT11=
EXTT12=
EXTT13=
EXTT14=
EXTT15=
EXTT16=
PLAYORDER=
